<svg xmlns="http://www.w3.org/2000/svg" width="72.998" height="59.447" viewBox="0 0 72.998 59.447">
  <g id="book" transform="translate(6 -47.336)">
    <path id="Path_26" data-name="Path 26" d="M2.072,57.977c.137,0,2.957-.1,7.1-.008V49.483a2.148,2.148,0,0,1,2.326-2.14c8.252.689,18.751,4.335,25.006,10.986,6.255-6.651,16.754-10.3,25.006-10.986a2.148,2.148,0,0,1,2.326,2.14V58.2c2.351-.089,4.576-.151,6.957-.221A2.148,2.148,0,0,1,73,60.123v39.1a2.147,2.147,0,0,1-2,2.142c-8.54.575-22.846.64-33.654,5.249a2.152,2.152,0,0,1-1.685,0C24.85,102,10.546,101.939,2,101.364a2.147,2.147,0,0,1-2-2.142v-39.1a2.147,2.147,0,0,1,2.072-2.146ZM13.462,51.9V88.7A45.553,45.553,0,0,1,34.352,99.3V62.4C29.655,56.536,20.758,53,13.462,51.9Zm46.075,0C52.24,53,43.344,56.536,38.646,62.4V99.3A45.553,45.553,0,0,1,59.537,88.7ZM68.7,97.2V62.334c-1.537.046-3.182.1-4.873.161V90.446a2.147,2.147,0,0,1-1.751,2.11,42.951,42.951,0,0,0-17.219,7.218c8.477-1.9,17.35-2.207,23.843-2.572Zm-64.41,0c6.483.365,15.363.67,23.844,2.572a42.952,42.952,0,0,0-17.219-7.218,2.147,2.147,0,0,1-1.751-2.11V62.264c-1.976-.044-3.659-.045-4.873-.034V97.2Z" transform="translate(-6)" fill="#25283a"/>
    <path id="Path_27" data-name="Path 27" d="M131.5,168.39a20,20,0,0,1,7.589-3.1,2.147,2.147,0,1,1,.715,4.234,15.654,15.654,0,0,0-5.85,2.387,2.147,2.147,0,1,1-2.455-3.523Z" transform="translate(-87.29 -101.046)" fill="#25283a"/>
    <path id="Path_28" data-name="Path 28" d="M131.611,253.111a22.942,22.942,0,0,1,7.374-3.056,2.147,2.147,0,1,1,.715,4.234,19.171,19.171,0,0,0-5.851,2.486,2.147,2.147,0,0,1-2.238-3.665Z" transform="translate(-87.183 -173.677)" fill="#25283a"/>
    <path id="Path_29" data-name="Path 29" d="M310.106,171.912a15.654,15.654,0,0,0-5.85-2.387,2.147,2.147,0,1,1,.715-4.234,20,20,0,0,1,7.589,3.1,2.147,2.147,0,0,1-2.455,3.523Z" transform="translate(-283.776 -101.046)" fill="#25283a"/>
    <path id="Path_30" data-name="Path 30" d="M305.716,250.055a22.937,22.937,0,0,1,7.374,3.056,2.147,2.147,0,0,1-2.238,3.665A19.173,19.173,0,0,0,305,254.289a2.147,2.147,0,1,1,.715-4.234Z" transform="translate(-284.52 -173.677)" fill="#25283a"/>
  </g>
</svg>
