<svg xmlns="http://www.w3.org/2000/svg" xmlns:xlink="http://www.w3.org/1999/xlink" width="118" height="120.041" viewBox="0 0 118 120.041">
  <defs>
    <filter id="Ellipse_2" x="0" y="0" width="118" height="120.041" filterUnits="userSpaceOnUse">
      <feOffset dy="3" input="SourceAlpha"/>
      <feGaussianBlur stdDeviation="3" result="blur"/>
      <feFlood flood-opacity="0.161"/>
      <feComposite operator="in" in2="blur"/>
      <feComposite in="SourceGraphic"/>
    </filter>
  </defs>
  <g id="Group_27" data-name="Group 27" transform="translate(-1381 -1473)">
    <g transform="matrix(1, 0, 0, 1, 1381, 1473)" filter="url(#Ellipse_2)">
      <ellipse id="Ellipse_2-2" data-name="Ellipse 2" cx="50" cy="51.02" rx="50" ry="51.02" transform="translate(9 6)" fill="#fff"/>
    </g>
    <g id="donate" transform="translate(1408.696 1442.002)">
      <g id="Group_9" data-name="Group 9" transform="translate(0 68.628)">
        <path id="Path_16" data-name="Path 16" d="M108.068,239.184a.852.852,0,1,0-.933,1.426,5.119,5.119,0,0,0,2.794.979v.921a.852.852,0,0,0,1.7,0v-.989a4.173,4.173,0,0,0,3.275-3.423,3.664,3.664,0,0,0-2.522-4.192c-.247-.087-.5-.179-.753-.275v-4.106a3.132,3.132,0,0,1,1.249.423.852.852,0,0,0,.969-1.4,4.913,4.913,0,0,0-2.218-.733v-.768a.852.852,0,1,0-1.7,0v.886c-.127.029-.255.062-.386.1a3.469,3.469,0,0,0-2.376,2.722,3.055,3.055,0,0,0,1,3.01,8.224,8.224,0,0,0,1.762,1.009v5.108A3.508,3.508,0,0,1,108.068,239.184Zm1.15-6.76a1.373,1.373,0,0,1-.377-1.354,1.8,1.8,0,0,1,1.088-1.369v3.177A5.109,5.109,0,0,1,109.218,232.424Zm2.6,3.088a1.987,1.987,0,0,1,1.41,2.3,2.5,2.5,0,0,1-1.595,1.936v-4.306Z" transform="translate(-94.624 -208.297)" fill="#25283a"/>
        <path id="Path_17" data-name="Path 17" d="M57.452,81.413a.852.852,0,0,0,.852-.852V70.339a1.713,1.713,0,0,0-1.711-1.711H49.206A1.713,1.713,0,0,0,47.5,70.339v.535l-11.738-.411a.852.852,0,1,0-.06,1.7l11.8.413V83.465a4.252,4.252,0,0,0-3.248.843l-6.124,5.667c-3.711,3.434-7.355,3.665-11.387,5.173l-.031.011a1.728,1.728,0,0,1-2.064-.732,1.76,1.76,0,0,1,.534-2.33l.015-.011,8.326-6.13a3.844,3.844,0,0,0-.282-6.457L30.5,77.907a3.866,3.866,0,0,0-3.76-.063L22.5,80.131A16.039,16.039,0,0,0,18.23,79l3.156-3.16A13.142,13.142,0,0,1,31.068,72l1.224.043h.03a.852.852,0,0,0,.029-1.7L31.125,70.3a14.855,14.855,0,0,0-10.944,4.333L15.939,78.88A16.233,16.233,0,0,0,2.964,104.462a.852.852,0,1,0,1.392-.983A14.529,14.529,0,1,1,28.59,87.467l-4.4,3.242a3.426,3.426,0,0,0,3.083,6.057l3.481-1.113A14.528,14.528,0,0,1,6.5,105.892a.852.852,0,0,0-1.142,1.264,16.232,16.232,0,0,0,27.112-12.05,17.485,17.485,0,0,0,6.815-3.879L45.4,85.559c.627-.58,1.312-.331,2.091-.39v1.755a1.713,1.713,0,0,0,1.711,1.711h7.386A1.713,1.713,0,0,0,58.3,86.925V83.967a.852.852,0,1,0-1.7,0l-.007,2.965L49.2,86.925l.007-16.593,7.394.007V80.561A.852.852,0,0,0,57.452,81.413ZM24.36,81.064l3.191-1.72a2.152,2.152,0,0,1,2.093.035l2.73,1.593a2.137,2.137,0,0,1,.153,3.6l-.015.011-2.546,1.875A16.259,16.259,0,0,0,24.36,81.064Z" transform="translate(0 -68.628)" fill="#25283a"/>
      </g>
    </g>
  </g>
</svg>
