<svg xmlns="http://www.w3.org/2000/svg" width="73.223" height="73.229" viewBox="0 0 73.223 73.229">
  <g id="fruits" transform="translate(-16.015 -16)">
    <path id="Path_22" data-name="Path 22" d="M88.017,62.376h-6.1V55.053A20.693,20.693,0,0,0,75.3,39.875c1.648-4.409,6.14-8.258,6.187-8.3a1.22,1.22,0,0,0-.788-2.151,19.274,19.274,0,0,0-9.168,2.063,21.714,21.714,0,0,1,1.611-2.34A28.206,28.206,0,0,1,76.6,25.475a1.22,1.22,0,0,0-.787-2.152,19.622,19.622,0,0,0-8.687,1.824c-.342-2.552-1.5-7.061-5.413-9.018a1.22,1.22,0,0,0-1.092,0c-3.909,1.954-5.068,6.456-5.411,9.01a19.6,19.6,0,0,0-8.688-1.816,1.22,1.22,0,0,0-.789,2.151A28.2,28.2,0,0,1,49.2,29.147a21.737,21.737,0,0,1,1.608,2.334,19.288,19.288,0,0,0-9.165-2.056,1.22,1.22,0,0,0-.789,2.151c.048.041,4.54,3.89,6.188,8.3a20.693,20.693,0,0,0-6.619,15.179v.14a11.258,11.258,0,0,0-4.08,1.553,3.59,3.59,0,0,1-.425.273c.321-2.939.89-5.938,1.86-7.392h0a1.22,1.22,0,1,0-2.031-1.354h0c-1.106,1.66-1.884,4.7-2.313,9.037a3.46,3.46,0,0,1-1.135-.564,11.66,11.66,0,0,0-5.287-1.694A10.53,10.53,0,0,0,18.9,58.717a13.049,13.049,0,0,0-2.721,10.5l.763,5.122a27.09,27.09,0,0,0,3.129,9.253,10.5,10.5,0,0,0,9.107,5.638,9.86,9.86,0,0,0,2.662-.369q.042-.012.082-.026l2.041-.73a1.033,1.033,0,0,1,.7,0l2.041.73c.027.01.054.018.082.026a9.862,9.862,0,0,0,2.662.369,10.124,10.124,0,0,0,7.209-3.1,30.289,30.289,0,0,0,33.953-5c5.477-4.991,8.619-11.38,8.619-17.53A1.22,1.22,0,0,0,88.017,62.376Zm-32-6.117,5.168-5.019,5.179,5.028L61.2,61.278Zm2.807,6.117H51.845a12.134,12.134,0,0,0-.63-1.455l3.048-2.96Zm9.292-4.408,4.541,4.408H63.569Zm-5.179-8.43L68.1,44.523l5.183,5.034-5.167,5.01Zm.854-12.6a18.174,18.174,0,0,1,6.375,2.18L68.1,41.121Zm2.558,5.887-5.164,5.015-5.162-5.011,5.165-5.016Zm-12.078-1.7-2.081-2.02a18.169,18.169,0,0,1,6.4-2.175Zm0,3.4,5.162,5.011-5.17,5.021-5.168-5.005ZM52.509,56.261l-2.665,2.588c-.037-.044-.073-.089-.11-.132A10.436,10.436,0,0,0,43.3,55.178l4.039-3.922Zm-.817,18.077.763-5.122a14.751,14.751,0,0,0,.005-4.4H81.7a20.073,20.073,0,0,1-6.681,11.251A22.777,22.777,0,0,1,59.947,81.9a22.368,22.368,0,0,1-9.6-2.21,27.607,27.607,0,0,0,1.349-5.354ZM77.408,62.376l2.066-2v2Zm2.066-5.4-4.443,4.3-5.163-5.012,5.167-5.01,4.439,4.311ZM79.2,51.9l-2.414-2.344,1.367-1.326A18.139,18.139,0,0,1,79.2,51.9Zm-2.172-5.98-1.994,1.934-5.184-5.034,2.4-2.329a18.445,18.445,0,0,1,4.78,5.43ZM77.485,32.1a23.853,23.853,0,0,0-4.161,6.152,20.77,20.77,0,0,0-3.48-2.041c.015-.19.038-.38.068-.57a13.664,13.664,0,0,1,7.573-3.54ZM72.6,26c-1.982,2.185-4.539,5.624-5.105,9.3a20.588,20.588,0,0,0-4.421-.9c-.143-.444-.326-.947-.559-1.487A12.974,12.974,0,0,1,72.6,26ZM61.168,18.625c3.024,1.97,3.551,6.488,3.642,7.917a14.834,14.834,0,0,0-3.644,3.85,15.1,15.1,0,0,0-1.927-2.379,14.836,14.836,0,0,0-1.713-1.474C57.618,25.107,58.146,20.594,61.168,18.625ZM49.736,26a13,13,0,0,1,10.726,8.32,20.64,20.64,0,0,0-5.623.975q-.057-.372-.141-.739l.043-.04-.068-.071C53.881,31.1,51.563,28.015,49.736,26ZM44.85,32.1a13.639,13.639,0,0,1,7.574,3.543c.03.189.053.379.068.568a20.77,20.77,0,0,0-3.48,2.041A23.845,23.845,0,0,0,44.85,32.1ZM50.1,40.481l2.416,2.346L47.34,47.856,45.32,45.9A18.443,18.443,0,0,1,50.1,40.481Zm-5.91,7.724,1.4,1.352-2.461,2.39a18.151,18.151,0,0,1,1.065-3.742Zm2.239,34.2a8.1,8.1,0,0,1-7,4.382,7.343,7.343,0,0,1-1.943-.263l-2-.715a3.492,3.492,0,0,0-2.348,0l-2,.715a7.874,7.874,0,0,1-8.94-4.119,24.656,24.656,0,0,1-2.846-8.423L18.6,68.857a10.619,10.619,0,0,1,2.155-8.546,8.123,8.123,0,0,1,6.258-2.817A9.7,9.7,0,0,1,30.832,58.7a5.838,5.838,0,0,0,2.4,1.07c-.06.971-.094,1.825-.112,2.479a3.639,3.639,0,0,1-1.615-.749l.013.013A1.22,1.22,0,1,0,29.8,63.24a6.488,6.488,0,0,0,4.524,1.577,6.483,6.483,0,0,0,4.524-1.578,1.22,1.22,0,1,0-1.726-1.726,3.684,3.684,0,0,1-1.556.723c.021-.737.06-1.6.121-2.527A5.854,5.854,0,0,0,37.806,58.7a9.7,9.7,0,0,1,3.822-1.205,8.123,8.123,0,0,1,6.258,2.816,10.621,10.621,0,0,1,2.155,8.546l-.763,5.122A24.658,24.658,0,0,1,46.431,82.4Zm32.542-3.081A27.836,27.836,0,0,1,48.22,84.166c.118-.187.233-.378.343-.575q.45-.807.843-1.643a24.809,24.809,0,0,0,10.541,2.395,25.216,25.216,0,0,0,16.688-6.449,22.376,22.376,0,0,0,7.534-13.078h2.58C86.362,69.9,83.576,75.129,78.974,79.322Z" transform="translate(0)" fill="#25283a"/>
    <circle id="Ellipse_21" data-name="Ellipse 21" cx="1.22" cy="1.22" r="1.22" transform="translate(74.592 67.258)" fill="#25283a"/>
    <circle id="Ellipse_22" data-name="Ellipse 22" cx="1.22" cy="1.22" r="1.22" transform="translate(68.49 73.36)" fill="#25283a"/>
    <circle id="Ellipse_23" data-name="Ellipse 23" cx="1.22" cy="1.22" r="1.22" transform="translate(62.388 69.698)" fill="#25283a"/>
    <circle id="Ellipse_24" data-name="Ellipse 24" cx="1.22" cy="1.22" r="1.22" transform="translate(55.066 69.698)" fill="#25283a"/>
    <circle id="Ellipse_25" data-name="Ellipse 25" cx="1.22" cy="1.22" r="1.22" transform="translate(58.727 77.021)" fill="#25283a"/>
  </g>
</svg>
