<svg xmlns="http://www.w3.org/2000/svg" xmlns:xlink="http://www.w3.org/1999/xlink" width="118" height="120.041" viewBox="0 0 118 120.041">
  <defs>
    <filter id="Ellipse_3" x="0" y="0" width="118" height="120.041" filterUnits="userSpaceOnUse">
      <feOffset dy="3" input="SourceAlpha"/>
      <feGaussianBlur stdDeviation="3" result="blur"/>
      <feFlood flood-opacity="0.161"/>
      <feComposite operator="in" in2="blur"/>
      <feComposite in="SourceGraphic"/>
    </filter>
  </defs>
  <g id="Group_26" data-name="Group 26" transform="translate(-881 -1473)">
    <g transform="matrix(1, 0, 0, 1, 881, 1473)" filter="url(#Ellipse_3)">
      <ellipse id="Ellipse_3-2" data-name="Ellipse 3" cx="50" cy="51.02" rx="50" ry="51.02" transform="translate(9 6)" fill="#fff"/>
    </g>
    <g id="heart" transform="translate(913 1504.499)">
      <path id="Path_12" data-name="Path 12" d="M41.028,262.6a1.028,1.028,0,1,0,1.028,1.028A1.028,1.028,0,0,0,41.028,262.6Zm0,0" transform="translate(-35.888 -235.155)" fill="#0f1217"/>
      <path id="Path_13" data-name="Path 13" d="M47.245,230.273,37.555,233.6a4.1,4.1,0,0,0-4.045-4.84H26.853a1.028,1.028,0,0,1-.5-.132l-5.431-3.054a7.2,7.2,0,0,0-3.529-.925H10.1A3.088,3.088,0,0,0,7.2,222.6H1.028A1.028,1.028,0,0,0,0,223.625v18.5a1.028,1.028,0,0,0,1.028,1.028H7.2a3.09,3.09,0,0,0,2.878-1.978,9.384,9.384,0,0,1,3.356,1l5.376,3.226a13.1,13.1,0,0,0,12.165.694l19.186-8.448a3.963,3.963,0,0,0-2.91-7.372Zm-39.022,9.8A1.029,1.029,0,0,1,7.2,241.1H2.056V224.653H7.2a1.029,1.029,0,0,1,1.028,1.028Zm41.151-4.333-.033.013-19.218,8.462a11.048,11.048,0,0,1-10.261-.583l-5.376-3.226a11.334,11.334,0,0,0-4.208-1.28V226.709h7.11a5.143,5.143,0,0,1,2.52.661l5.431,3.054a3.088,3.088,0,0,0,1.513.4H33.51a2.056,2.056,0,1,1,0,4.112H23.061a1.028,1.028,0,1,0,0,2.055H33.51a4.1,4.1,0,0,0,1.927-.481l12.5-4.3a1.908,1.908,0,1,1,1.439,3.534Zm0,0" transform="translate(0 -199.267)" fill="#0f1217"/>
      <path id="Path_14" data-name="Path 14" d="M173.445,25.434a1.029,1.029,0,0,0,1.347,0c8.387-7.269,13.575-10.947,13.575-16.663,0-4.522-3.2-8.27-7.7-8.27A7.611,7.611,0,0,0,174,4.758a7.475,7.475,0,0,0-14,1.427,1.028,1.028,0,1,0,1.973.578,5.578,5.578,0,0,1,5.361-4.206c2.932,0,4.99,2.6,5.681,5.028a1.028,1.028,0,0,0,1.981,0c.014-.05,1.442-5.028,5.682-5.028,3.217,0,5.643,2.671,5.643,6.214,0,4.573-4.47,7.869-12.193,14.528-4.706-4.041-8.443-6.886-10.568-9.668a1.028,1.028,0,1,0-1.634,1.248c2.395,3.136,6.437,6.141,11.53,10.556Zm0,0" transform="translate(-143.507)" fill="#0f1217"/>
      <path id="Path_15" data-name="Path 15" d="M160.028,88.6a1.028,1.028,0,1,0,1.028,1.028A1.028,1.028,0,0,0,160.028,88.6Zm0,0" transform="translate(-142.656 -79.041)" fill="#0f1217"/>
    </g>
  </g>
</svg>
