<svg xmlns="http://www.w3.org/2000/svg" width="49.597" height="49.585" viewBox="0 0 49.597 49.585">
  <path id="Path_23" data-name="Path 23" d="M45.75,3.976a13.357,13.357,0,0,0-18.907-.11l-.11.11L15.62,15.089a1.36,1.36,0,0,0-.521.521L3.916,26.779A13.4,13.4,0,0,0,22.905,45.686l.014-.014L34.087,34.462a1.374,1.374,0,0,0,.4-.4L45.64,22.882A13.37,13.37,0,0,0,45.75,3.976ZM20.971,43.737A10.653,10.653,0,0,1,5.865,28.714L16.347,18.231,31.384,33.3ZM43.705,20.92,33.319,31.334,18.282,16.3l10.4-10.4A10.623,10.623,0,1,1,43.705,20.92Z" transform="translate(-0.013 0)" fill="#25283a"/>
</svg>
