<svg xmlns="http://www.w3.org/2000/svg" xmlns:xlink="http://www.w3.org/1999/xlink" width="118" height="120.041" viewBox="0 0 118 120.041">
  <defs>
    <filter id="Ellipse_1" x="0" y="0" width="118" height="120.041" filterUnits="userSpaceOnUse">
      <feOffset dy="3" input="SourceAlpha"/>
      <feGaussianBlur stdDeviation="3" result="blur"/>
      <feFlood flood-opacity="0.161"/>
      <feComposite operator="in" in2="blur"/>
      <feComposite in="SourceGraphic"/>
    </filter>
  </defs>
  <g id="Group_25" data-name="Group 25" transform="translate(-879 -1114)">
    <g transform="matrix(1, 0, 0, 1, 879, 1114)" filter="url(#Ellipse_1)">
      <ellipse id="Ellipse_1-2" data-name="Ellipse 1" cx="50" cy="51.02" rx="50" ry="51.02" transform="translate(9 6)" fill="#fff"/>
    </g>
    <g id="user" transform="translate(885 1142)">
      <g id="Group_5" data-name="Group 5" transform="translate(40)">
        <g id="Group_4" data-name="Group 4">
          <path id="Path_3" data-name="Path 3" d="M134.5,0A13.5,13.5,0,1,0,148,13.5,13.515,13.515,0,0,0,134.5,0Zm0,24A10.5,10.5,0,1,1,145,13.5,10.512,10.512,0,0,1,134.5,24Z" transform="translate(-121 0)" fill="#25283a"/>
        </g>
      </g>
      <g id="Group_7" data-name="Group 7" transform="translate(31 30.1)">
        <g id="Group_6" data-name="Group 6" transform="translate(0)">
          <path id="Path_4" data-name="Path 4" d="M57.683,301H49.317A21.683,21.683,0,0,0,31,311.046V322.1H76V311.046A21.688,21.688,0,0,0,57.683,301ZM73,319.1H34v-7.136A18.671,18.671,0,0,1,49.317,304h8.367A18.671,18.671,0,0,1,73,311.964V319.1Z" transform="translate(-31 -301)" fill="#25283a"/>
        </g>
      </g>
    </g>
  </g>
</svg>
