<?xml version="1.0"?>
<svg xmlns="http://www.w3.org/2000/svg" xmlns:xlink="http://www.w3.org/1999/xlink" xmlns:svgjs="http://svgjs.com/svgjs" version="1.1" width="512" height="512" x="0" y="0" viewBox="0 0 128 128" style="enable-background:new 0 0 512 512" xml:space="preserve" class=""><g><path xmlns="http://www.w3.org/2000/svg" d="m95.36 89.672h-83.37a2.81 2.81 0 0 1 .63-.83l11.73-10.37a1.558 1.558 0 0 1 .2-.16 2.768 2.768 0 0 1 1.64-.53h54.96a2.746 2.746 0 0 1 1.64.53 1.558 1.558 0 0 1 .2.16l11.73 10.37a2.844 2.844 0 0 1 .64.83z" fill="#2f3a5a" data-original="#6bb3d9" style="" class=""/><path xmlns="http://www.w3.org/2000/svg" d="m95.66 90.922v34.3a2.787 2.787 0 0 1 -2.78 2.778h-78.42a2.787 2.787 0 0 1 -2.78-2.78v-34.3a2.69 2.69 0 0 1 .31-1.25h83.37a2.681 2.681 0 0 1 .3 1.252z" fill="#2f3a5a" data-original="#4fa4d1" style="" class=""/><path xmlns="http://www.w3.org/2000/svg" d="m72.722 85.481h-38.103l1.796-3.513h34.512z" fill="#ffffff" data-original="#2f3a5a" style="" class=""/><path xmlns="http://www.w3.org/2000/svg" d="m58.41 36.189 5.98-6.128v-16.652l-15.468 15.9-5.252 19.453a11.6 11.6 0 0 0 13.643-8.4z" fill="#f0c191" data-original="#f0c191" style="" class=""/><circle xmlns="http://www.w3.org/2000/svg" cx="52.775" cy="58.64" fill="#ef943a" r="14.23" transform="matrix(.973 -.23 .23 .973 -12.061 13.694)" data-original="#ef943a" style="" class=""/><circle xmlns="http://www.w3.org/2000/svg" cx="52.775" cy="58.64" fill="#f6ba5b" r="10.606" transform="matrix(.973 -.23 .23 .973 -12.061 13.694)" data-original="#f6ba5b" style=""/><circle xmlns="http://www.w3.org/2000/svg" cx="52.775" cy="58.64" fill="#f6ba5b" r="10.669" transform="matrix(.973 -.23 .23 .973 -12.061 13.694)" data-original="#f6ba5b" style=""/><g xmlns="http://www.w3.org/2000/svg" fill="#de8c34"><path d="m52.775 47.3a.4.4 0 0 1 -.395-.4v-1.612a.4.4 0 0 1 .79 0v1.618a.4.4 0 0 1 -.395.394z" fill="#de8c34" data-original="#de8c34" style="" class=""/><path d="m52.775 72.224a.4.4 0 0 1 -.395-.4v-1.613a.4.4 0 0 1 .79 0v1.618a.4.4 0 0 1 -.395.395z" fill="#de8c34" data-original="#de8c34" style="" class=""/><path d="m66.045 58.954h-1.617a.4.4 0 1 1 0-.79h1.617a.4.4 0 0 1 0 .79z" fill="#de8c34" data-original="#de8c34" style="" class=""/><path d="m41.122 58.954h-1.617a.395.395 0 0 1 0-.79h1.617a.4.4 0 1 1 0 .79z" fill="#de8c34" data-original="#de8c34" style="" class=""/><path d="m61.015 50.714a.39.39 0 0 1 -.28-.116.4.4 0 0 1 0-.558l1.144-1.14a.395.395 0 1 1 .559.558l-1.144 1.142a.39.39 0 0 1 -.279.114z" fill="#de8c34" data-original="#de8c34" style="" class=""/><path d="m43.391 68.337a.395.395 0 0 1 -.279-.674l1.144-1.144a.4.4 0 0 1 .559.559l-1.144 1.144a.4.4 0 0 1 -.28.115z" fill="#de8c34" data-original="#de8c34" style="" class=""/><path d="m62.159 68.337a.4.4 0 0 1 -.28-.115l-1.144-1.144a.4.4 0 0 1 .559-.559l1.144 1.144a.395.395 0 0 1 -.279.674z" fill="#de8c34" data-original="#de8c34" style="" class=""/><path d="m44.536 50.714a.392.392 0 0 1 -.28-.116l-1.144-1.144a.395.395 0 1 1 .559-.558l1.144 1.144a.4.4 0 0 1 0 .558.39.39 0 0 1 -.279.116z" fill="#de8c34" data-original="#de8c34" style="" class=""/><path d="m48.316 48.188a.4.4 0 0 1 -.365-.244l-.619-1.494a.395.395 0 0 1 .729-.3l.62 1.5a.4.4 0 0 1 -.214.516.4.4 0 0 1 -.151.022z" fill="#de8c34" data-original="#de8c34" style="" class=""/><path d="m57.854 71.214a.4.4 0 0 1 -.365-.244l-.62-1.494a.4.4 0 0 1 .73-.3l.619 1.5a.4.4 0 0 1 -.213.516.406.406 0 0 1 -.151.022z" fill="#de8c34" data-original="#de8c34" style="" class=""/><path d="m63.541 54.5a.4.4 0 0 1 -.151-.76l1.494-.619a.395.395 0 1 1 .3.729l-1.495.619a.385.385 0 0 1 -.148.031z" fill="#de8c34" data-original="#de8c34" style="" class=""/><path d="m40.515 64.032a.4.4 0 0 1 -.152-.76l1.495-.619a.4.4 0 1 1 .3.73l-1.492.617a.406.406 0 0 1 -.151.032z" fill="#de8c34" data-original="#de8c34" style="" class=""/><path d="m57.234 48.188a.4.4 0 0 1 -.151-.03.4.4 0 0 1 -.214-.516l.62-1.5a.395.395 0 0 1 .729.3l-.618 1.502a.4.4 0 0 1 -.366.244z" fill="#de8c34" data-original="#de8c34" style="" class=""/><path d="m47.7 71.214a.407.407 0 0 1 -.152-.03.4.4 0 0 1 -.213-.516l.619-1.5a.4.4 0 0 1 .73.3l-.62 1.494a.4.4 0 0 1 -.364.252z" fill="#de8c34" data-original="#de8c34" style="" class=""/><path d="m65.035 64.032a.406.406 0 0 1 -.151-.03l-1.494-.619a.4.4 0 1 1 .3-.73l1.495.619a.4.4 0 0 1 -.152.76z" fill="#de8c34" data-original="#de8c34" style="" class=""/><path d="m42.009 54.5a.385.385 0 0 1 -.151-.031l-1.495-.619a.395.395 0 1 1 .3-.729l1.494.619a.4.4 0 0 1 -.151.76z" fill="#de8c34" data-original="#de8c34" style="" class=""/></g><path xmlns="http://www.w3.org/2000/svg" d="m63.444 58.641a10.655 10.655 0 0 1 -6.19 9.673 10.649 10.649 0 0 0 -9.916-18.814 10.651 10.651 0 0 1 16.106 9.141z" fill="#e8ae58" data-original="#e8ae58" style="" class=""/><path xmlns="http://www.w3.org/2000/svg" d="m52.813 59.2a3.806 3.806 0 1 1 3.806-3.8.593.593 0 0 1 -1.185 0 2.621 2.621 0 1 0 -2.621 2.621.593.593 0 0 1 0 1.185z" fill="#ef943a" data-original="#ef943a" style="" class=""/><path xmlns="http://www.w3.org/2000/svg" d="m52.813 65.63a3.81 3.81 0 0 1 -3.806-3.806.593.593 0 1 1 1.185 0 2.621 2.621 0 1 0 2.621-2.624.592.592 0 1 1 0-1.184 3.806 3.806 0 0 1 0 7.612z" fill="#ef943a" data-original="#ef943a" style="" class=""/><path xmlns="http://www.w3.org/2000/svg" d="m52.813 52.775a.592.592 0 0 1 -.592-.592v-1.212a.592.592 0 0 1 1.184 0v1.212a.592.592 0 0 1 -.592.592z" fill="#ef943a" data-original="#ef943a" style="" class=""/><path xmlns="http://www.w3.org/2000/svg" d="m52.813 66.851a.592.592 0 0 1 -.592-.592v-1.211a.592.592 0 0 1 1.184 0v1.211a.592.592 0 0 1 -.592.592z" fill="#ef943a" data-original="#ef943a" style="" class=""/><path xmlns="http://www.w3.org/2000/svg" d="m102.675 0-9.2 7.119-28.536 5.726-16.017 16.466-1.553 5.753v3.536h7.674a3.32 3.32 0 0 1 1.5-.341 3.411 3.411 0 0 1 1.257.241l.607-2.31 10.549-10.807 11.473 1.075-7.176 11.219-10.926 5.53a9.776 9.776 0 0 0 -5.094 10.985 1.094 1.094 0 0 0 1.331.808l22.442-5.74 23.382-20.56 11.928-7.318z" fill="#f0c191" data-original="#f0c191" style="" class=""/><g xmlns="http://www.w3.org/2000/svg" opacity=".5"><path d="m114.26 18.152-11.59 7.11-23.39 20.55s-22.26 7.49-22.05 8.38a1.1 1.1 0 0 0 1.33.81l22.45-5.74 23.38-20.562 11.93-7.32z" fill="#ddb087" data-original="#ddb087" style="" class=""/></g></g></svg>
