<?xml version="1.0" encoding="iso-8859-1"?>
<!-- Generator: Adobe Illustrator 19.0.0, SVG Export Plug-In . SVG Version: 6.00 Build 0)  -->
<svg version="1.1" id="Capa_1" xmlns="http://www.w3.org/2000/svg" xmlns:xlink="http://www.w3.org/1999/xlink" x="0px" y="0px"
	 viewBox="0 0 512 512" style="enable-background:new 0 0 512 512;" xml:space="preserve">
<path style="fill:#80391B;" d="M142.922,206.537c0.198,21.271,17.46,38.457,38.735,38.457s38.537-17.184,38.735-38.457H142.922z"/>
<path style="fill:#FFB69E;" d="M89.674,50.64c20.01,0,36.231,16.255,36.231,36.306c0,20.051-16.222,36.306-36.231,36.306
	s-36.23-16.255-36.23-36.306C53.444,66.896,69.665,50.64,89.674,50.64"/>
<path style="fill:#414B82;" d="M20.981,462.444c-2.459,0-4.961-0.436-7.397-1.357c-10.842-4.095-16.317-16.222-12.23-27.085
	l34.118-90.691l3.734-58.644c0.739-11.586,10.69-20.38,22.272-19.64c11.562,0.739,20.338,10.731,19.6,22.317l-3.934,61.781
	c-0.133,2.079-0.573,4.127-1.306,6.076l-35.225,93.631C37.445,457.253,29.46,462.444,20.981,462.444z"/>
<path style="fill:#343E6B;" d="M116.546,462.444c-11.586,0-20.978-9.411-20.978-21.021v-92.151l-9.291-65.516
	c-1.624-11.495,6.359-22.133,17.831-23.761c11.459-1.628,22.086,6.371,23.711,17.867l9.499,66.983
	c0.138,0.976,0.207,1.96,0.207,2.947v93.631C137.524,453.033,128.131,462.444,116.546,462.444z"/>
<path style="fill:#64AFFF;" d="M129.019,285.885H39.156V160.051c0-13.545,10.038-24.525,22.421-24.525h45.022
	c12.383,0,22.421,10.98,22.421,24.525v125.834H129.019z"/>
<path style="fill:#FFB69E;" d="M186.251,255.275c-1.842,0.471-3.792,0.647-5.792,0.478l-69.596-5.886
	c-5.833-0.494-11.033-3.88-13.852-9.022l-39.329-70.982c-4.649-8.48-1.557-19.13,6.906-23.788c8.46-4.663,19.09-1.56,23.739,6.92
	l34.817,62.749l60.256,5.097c9.62,0.814,16.761,9.288,15.95,18.929C198.705,247.406,193.266,253.482,186.251,255.275z"/>
<path style="fill:#78BEFF;" d="M79.635,209.486l31.325-15.698l-22.634-40.792c-4.649-8.48-15.28-11.584-23.739-6.92
	c-8.462,4.658-11.555,15.308-6.906,23.788L79.635,209.486z"/>
<path style="fill:#BA6746;" d="M294.129,50.64c20.01,0,36.231,16.255,36.231,36.306c0,20.051-16.222,36.306-36.231,36.306
	c-20.01,0-36.231-16.255-36.231-36.306C257.899,66.896,274.12,50.64,294.129,50.64"/>
<path style="fill:#50374B;" d="M362.824,462.444c2.459,0,4.961-0.436,7.397-1.357c10.842-4.095,16.317-16.222,12.23-27.085
	l-34.118-90.691l-3.734-58.644c-0.739-11.586-10.69-20.38-22.272-19.64c-11.562,0.739-20.338,10.731-19.6,22.317l3.934,61.781
	c0.133,2.079,0.573,4.127,1.306,6.076l35.224,93.631C346.36,457.253,354.345,462.444,362.824,462.444z"/>
<path style="fill:#695A6E;" d="M267.259,462.444c11.586,0,20.978-9.411,20.978-21.021v-92.151l9.292-65.517
	c1.624-11.495-6.359-22.133-17.831-23.761c-11.459-1.628-22.086,6.371-23.711,17.867l-9.499,66.983
	c-0.138,0.976-0.207,1.96-0.207,2.947v93.631C246.281,453.033,255.673,462.444,267.259,462.444z"/>
<path style="fill:#FF3C3C;" d="M254.786,285.885h89.863V160.051c0-13.545-10.038-24.525-22.421-24.525h-45.022
	c-12.383,0-22.421,10.98-22.421,24.525L254.786,285.885L254.786,285.885z"/>
<path style="fill:#BA6746;" d="M194.314,265.048c1.874,0.315,3.832,0.328,5.812-0.009l68.862-11.688
	c5.772-0.98,10.671-4.789,13.052-10.149l33.279-74.024c3.926-8.839-0.043-19.193-8.864-23.127
	c-8.819-3.939-19.154,0.043-23.08,8.882l-29.468,65.443l-59.621,10.119c-9.519,1.616-15.929,10.658-14.317,20.197
	C181.248,258.248,187.175,263.849,194.314,265.048z"/>
<path style="fill:#FF4F38;" d="M296.744,210.5l-32.523-13.022l19.157-42.544c3.926-8.839,14.261-12.822,23.08-8.882
	c8.821,3.934,12.79,14.288,8.864,23.127L296.744,210.5z"/>
<ellipse style="fill:#FFB69E;" cx="455.367" cy="85.867" rx="36.23" ry="36.31"/>
<path style="fill:#50555A;" d="M490.992,462.444c-10.324,0.001-19.321-7.639-20.758-18.177l-11.978-87.807
	c-0.182-1.341-0.236-2.696-0.158-4.048l4.783-83.759c0.662-11.591,10.563-20.446,22.142-19.786
	c11.314,0.649,20.02,10.167,19.775,21.43c-0.005,0.252-0.015,0.505-0.03,0.758l-4.667,81.728l11.704,85.792
	c1.569,11.503-6.465,22.102-17.944,23.675C492.897,462.38,491.938,462.444,490.992,462.444z"/>
<path style="fill:#42464A;" d="M424.928,462.192c-11.586,0-20.978-9.411-20.978-21.021V347.54c0-0.986,0.069-1.97,0.208-2.946
	l11.363-80.442c1.624-11.496,12.247-19.495,23.712-17.867c11.472,1.628,19.455,12.265,17.831,23.761l-11.158,78.977v92.15
	C445.906,452.781,436.514,462.192,424.928,462.192z"/>
<path style="fill:#414B82;" d="M413,284.799h90.982l0.896-15.68V158.966c0-13.545-10.038-24.525-22.421-24.525h-47.036
	c-12.383,0-22.421,10.98-22.421,24.525V284.799z"/>
<path style="fill:#FFB69E;" d="M439.035,296.955c1.654-0.939,3.182-2.165,4.508-3.677l46.124-52.556
	c3.866-4.406,5.275-10.456,3.754-16.122l-20.349-71.352c-2.509-9.342-12.102-14.877-21.425-12.362
	c-9.324,2.509-14.846,12.127-12.337,21.469l17.911,62.283l-39.933,45.503c-6.376,7.265-5.667,18.334,1.583,24.722
	C424.613,299.925,432.737,300.531,439.035,296.955z"/>
<path style="fill:#4A5594;" d="M452.407,207.896l33.649-9.121l-12.983-45.527c-2.509-9.342-12.102-14.877-21.425-12.363
	c-9.324,2.509-14.846,12.127-12.337,21.47L452.407,207.896z"/>
<g>
</g>
<g>
</g>
<g>
</g>
<g>
</g>
<g>
</g>
<g>
</g>
<g>
</g>
<g>
</g>
<g>
</g>
<g>
</g>
<g>
</g>
<g>
</g>
<g>
</g>
<g>
</g>
<g>
</g>
</svg>
