<svg xmlns="http://www.w3.org/2000/svg" width="512" height="512" viewBox="0 0 512 512">
  <g id="Group_32" data-name="Group 32" transform="translate(-2187 -17)">
    <g id="XMLID_37_" transform="translate(2187 17)">
      <g id="XMLID_55_">
        <g id="XMLID_56_">
          <g id="XMLID_57_">
            <g id="XMLID_58_">
              <g id="XMLID_59_">
                <g id="XMLID_60_">
                  <g id="XMLID_75_">
                    <g id="XMLID_76_">
                      <g id="XMLID_77_">
                        <g id="XMLID_78_">
                          <g id="XMLID_79_">
                            <g id="XMLID_80_">
                              <g id="XMLID_81_">
                                <path id="Path_1781" data-name="Path 1781" d="M512,256c0,141.38-114.62,256-256,256S0,397.38,0,256,114.62,0,256,0a255.016,255.016,0,0,1,98.91,19.82c13.754,5.765,17.2,24.4,29.616,32.377,13.145,8.446,35.163,6.357,46.514,16.993A255.3,255.3,0,0,1,512,256Z" fill="#25283a"/>
                              </g>
                            </g>
                          </g>
                        </g>
                      </g>
                    </g>
                  </g>
                </g>
              </g>
            </g>
          </g>
        </g>
      </g>
    </g>
    <path id="Path_1782" data-name="Path 1782" d="M249.377,88.04,150.54,154.35l78.482,78.5c-7.1,7.976-23.307,32.185-23.307,32.185l35.391,36.069-39.594-1.7-89.935-90.381,30.244,85.313L128.633,453.625l44.741,44.741A255.664,255.664,0,0,0,256,512c141.38,0,256-114.62,256-256A255.281,255.281,0,0,0,431.759,69.881a2.277,2.277,0,0,1-1.242-.293l.524-.4Z" transform="translate(2187 17)" fill="#25283a"/>
    <path id="Path_1785" data-name="Path 1785" d="M429.649,231.446l-29.226-22.309-71.084,82.834H182.747l-71.17-82.945L82.351,231.335l46.282,60.636V453.624H383.46V291.971h0Z" transform="translate(2187 17)" fill="#7c605d"/>
    <path id="Path_1786" data-name="Path 1786" d="M429.65,231.45l-46.19,60.52V453.62H256V291.97h73.34l71.08-82.83Z" transform="translate(2187 17)" fill="#664744"/>
    <g id="Group_28" data-name="Group 28" transform="translate(2187 17)">
      <path id="Path_1787" data-name="Path 1787" d="M353.028,91.424l-.3,37.175a35.82,35.82,0,0,1-15.553,5.359l-80.667,8.1a20.368,20.368,0,0,1-4.071-40.533Z" fill="#fcc78d"/>
      <path id="Path_1788" data-name="Path 1788" d="M353.03,91.42l-.3,37.18a35.941,35.941,0,0,1-15.55,5.36l-80.67,8.1c-.17.02-.34.03-.51.04V101.17Z" fill="#f4af71"/>
      <path id="Path_1789" data-name="Path 1789" d="M431.04,69.19,352.73,128.6a35.773,35.773,0,0,0-38.89-28.05l-72.05,7.82-51.61,47.58a28.056,28.056,0,0,1-38.03-41.26l43.99-40.54a94.336,94.336,0,0,1,54.58-24.54l83.13-8.35,21.06-21.44a256.31,256.31,0,0,1,76.13,49.37Z" fill="#ffdba9"/>
      <g id="Group_27" data-name="Group 27">
        <path id="Path_1790" data-name="Path 1790" d="M431.04,69.19,352.73,128.6a35.773,35.773,0,0,0-38.89-28.05L256,106.83V49.08l77.85-7.82,21.06-21.44a256.31,256.31,0,0,1,76.13,49.37Z" fill="#fcc78d"/>
      </g>
    </g>
    <path id="Path_1791" data-name="Path 1791" d="M183.21,336.116H328.789v74.7H183.21Z" transform="translate(2187 17)" fill="#fcfcfc"/>
    <path id="Path_1792" data-name="Path 1792" d="M256,336.12h72.79v74.7H256Z" transform="translate(2187 17)" fill="#e2e2e2"/>
    <g id="indian" transform="translate(2384.588 177.378)">
      <path id="Path_1793" data-name="Path 1793" d="M57.6,1a56.6,56.6,0,1,0,56.6,56.6A56.667,56.667,0,0,0,57.6,1Z" transform="translate(0 0)" fill="#ffc107"/>
      <g id="Group_31" data-name="Group 31" transform="translate(37.017 30.586)">
        <path id="Path_1794" data-name="Path 1794" d="M40.155,59.491a3.829,3.829,0,0,1-2.171-.674l-28.3-19.3a3.857,3.857,0,0,1,2.177-7.044H23.438a9,9,0,1,0,0-18.009H11.86a3.859,3.859,0,0,1,0-7.718H23.438a16.725,16.725,0,0,1,.9,33.425l18,12.272a3.858,3.858,0,0,1-2.182,7.044Z" transform="translate(-8 -6.75)" fill="#fafafa"/>
        <path id="Path_1795" data-name="Path 1795" d="M45.3,14.468H11.859a3.859,3.859,0,0,1,0-7.718H45.3a3.859,3.859,0,1,1,0,7.718Z" transform="translate(-7.998 -6.75)" fill="#fafafa"/>
        <path id="Path_1796" data-name="Path 1796" d="M45.3,17.218H11.859a3.859,3.859,0,0,1,0-7.718H45.3a3.859,3.859,0,0,1,0,7.718Z" transform="translate(-7.998 4.65)" fill="#fafafa"/>
      </g>
      <path id="Path_1797" data-name="Path 1797" d="M57.6,63.224a16.565,16.565,0,0,1-4.245.787l4.245,2.9ZM57.6,1a56.6,56.6,0,0,0,0,113.2V76.242L38.7,63.358a3.857,3.857,0,0,1,2.177-7.044H52.455A8.937,8.937,0,0,0,57.6,54.693V52.455H40.877a3.859,3.859,0,0,1,0-7.718H57.6V39.925A8.974,8.974,0,0,0,52.455,38.3H40.877a3.859,3.859,0,0,1,0-7.718H57.6Z" transform="translate(0 0)" fill="#dea806"/>
      <path id="Path_1798" data-name="Path 1798" d="M28.584,27.747a8.974,8.974,0,0,1-5.145,1.621H11.861a3.857,3.857,0,0,0-2.177,7.044L28.584,49.3V39.958l-4.245-2.9a16.565,16.565,0,0,0,4.245-.787ZM8,7.5a3.86,3.86,0,0,0,3.859,3.859H23.438a8.937,8.937,0,0,1,5.145,1.621V11.359H11.861A3.86,3.86,0,0,1,8,7.5Z" transform="translate(29.016 26.945)" fill="#dadada"/>
      <path id="Path_1799" data-name="Path 1799" d="M28.582,6.75H11.859a3.859,3.859,0,0,0,0,7.718H28.582Z" transform="translate(29.018 23.836)" fill="#dadada"/>
      <path id="Path_1800" data-name="Path 1800" d="M28.582,9.5H11.859a3.859,3.859,0,0,0,0,7.718H28.582Z" transform="translate(29.018 35.236)" fill="#dadada"/>
    </g>
  </g>
</svg>
