<svg xmlns="http://www.w3.org/2000/svg" width="222.72" height="330" viewBox="0 0 222.72 330">
  <g id="man" transform="translate(-78.033 0)">
    <path id="Path_1771" data-name="Path 1771" d="M297.754,294.517V321.5a5.5,5.5,0,0,1-5.5,5.5H91.531a5.5,5.5,0,0,1-5.5-5.5V294.517a51.267,51.267,0,0,1,51.274-51.26A28.463,28.463,0,0,0,161.2,230.292c5.1-7.832,4.571-14.643,4.571-20.148l.1-.254a68.061,68.061,0,0,1-42.035-62.9V144.84a16.955,16.955,0,0,1-17.185-16.869V99.4c-.22-9.947.234-45.025,25.572-69.449C161.688,1.556,208.377,3.88,242.2,19.072a1.379,1.379,0,0,1-.048,2.53l-8.819,3.63a1.376,1.376,0,0,0,.378,2.64l4.283.461a69.386,69.386,0,0,1,51.363,31.861,1.476,1.476,0,0,1-.179,1.7,41.59,41.59,0,0,0-11.356,28.569v37.512A16.872,16.872,0,0,1,260.95,144.84h-1v2.152a68.061,68.061,0,0,1-42.035,62.9l.1.254c0,5.346-.568,12.25,4.571,20.148a28.463,28.463,0,0,0,23.894,12.965,51.267,51.267,0,0,1,51.274,51.26Z" transform="translate(-2.5 -2.503)" fill="#ffdfba"/>
    <path id="Path_1772" data-name="Path 1772" d="M297.754,395.6v26.988a5.5,5.5,0,0,1-5.5,5.5H91.531a5.5,5.5,0,0,1-5.5-5.5V395.6a51.27,51.27,0,0,1,51.27-51.26,28.462,28.462,0,0,0,23.9-12.965,47.186,47.186,0,0,0,61.386,0,28.461,28.461,0,0,0,23.9,12.965A51.27,51.27,0,0,1,297.754,395.6Z" transform="translate(-2.5 -103.584)" fill="#fe4f60"/>
    <path id="Path_1773" data-name="Path 1773" d="M298.715,60.2a1.458,1.458,0,0,1-.178,1.692,41.613,41.613,0,0,0-11.354,28.572v37.512c0,8.516-6.416,16.869-17.873,16.869V102.379a33,33,0,0,0-33-33H166.2a33,33,0,0,0-33,33V144.84a16.955,16.955,0,0,1-17.185-16.869V99.4c-.22-9.947.234-45.025,25.572-69.449,29.461-28.4,76.154-26.073,109.97-10.88a1.377,1.377,0,0,1-.045,2.528l-8.82,3.631a1.375,1.375,0,0,0,.377,2.638l4.284.46A69.354,69.354,0,0,1,298.715,60.2Z" transform="translate(-11.865 -2.503)" fill="#42434d"/>
    <path id="Path_1774" data-name="Path 1774" d="M277.139,174.9a68.056,68.056,0,0,1-68.054,68.054c-35.4,0-68.054-27.518-68.054-70.205V130.289a33,33,0,0,1,33-33h70.116a33,33,0,0,1,33,33Z" transform="translate(-19.693 -30.413)" fill="#ffebd2"/>
    <path id="Path_1775" data-name="Path 1775" d="M193.677,223.739c11.189,7,2.366,24.167-9.882,19.25a68.065,68.065,0,0,1-42.762-63.195V135.182a32.846,32.846,0,0,1,5.79-18.676,8.127,8.127,0,0,1,14.832,4.927v44.613a67.557,67.557,0,0,0,32.022,57.693Z" transform="translate(-19.693 -35.306)" fill="#fff3e4"/>
    <path id="Path_1776" data-name="Path 1776" d="M254.7,313.235a68.24,68.24,0,0,1-53.8,0c.932-3.867.777-6.372.777-11.287l.1-.254a68.193,68.193,0,0,0,52.037,0l.1.254c0,4.917-.155,7.421.777,11.287Z" transform="translate(-38.408 -94.306)" fill="#ffd6a6"/>
    <path id="Path_1777" data-name="Path 1777" d="M165,360.943a27.96,27.96,0,0,1-8.191,1.266c-28.387.25-51.532,22.7-51.532,51.085v5.167a9.624,9.624,0,0,1-9.624,9.624H91.53a5.5,5.5,0,0,1-5.5-5.5V395.6a51.27,51.27,0,0,1,51.27-51.26,28.462,28.462,0,0,0,23.9-12.965,47.576,47.576,0,0,0,6.539,4.69c10.141,6.043,8.525,21.34-2.736,24.881Z" transform="translate(-2.5 -103.584)" fill="#ff6d7a"/>
    <path id="Path_1778" data-name="Path 1778" d="M274.841,360.943a27.96,27.96,0,0,0,8.191,1.266c28.387.25,51.532,22.7,51.532,51.085v5.167a9.624,9.624,0,0,0,9.624,9.624h4.124a5.5,5.5,0,0,0,5.5-5.5V395.6a51.27,51.27,0,0,0-51.27-51.26,28.462,28.462,0,0,1-23.9-12.965,47.579,47.579,0,0,1-6.539,4.69c-10.141,6.043-8.525,21.34,2.736,24.881Z" transform="translate(-58.558 -103.584)" fill="#e84857"/>
    <path id="Path_1779" data-name="Path 1779" d="M251.515,21.6c-8.083,3.326-9.235,4.06-12.035,3.625-45.145-7-84.754,11.681-98.2,55.533v.007a32.831,32.831,0,0,0-8.07,21.612v25.794c0,11.128-17.185,11.9-17.185-.2V99.4c-.22-9.947.234-45.025,25.572-69.449,29.462-28.4,76.151-26.073,109.972-10.882a1.379,1.379,0,0,1-.048,2.53Z" transform="translate(-11.865 -2.503)" fill="#4d4e59"/>
    <path id="Path_1780" data-name="Path 1780" d="M300.753,292.016V324.5a5.5,5.5,0,0,1-11,0V292.016a45.736,45.736,0,0,0-45.763-45.762,33.767,33.767,0,0,1-29.049-16.311,5.5,5.5,0,0,1,9.393-5.721,22.845,22.845,0,0,0,19.656,11.034,56.728,56.728,0,0,1,56.761,56.76ZM204.787,236.89a5.5,5.5,0,0,1-4.2,6.544,52.634,52.634,0,0,1-40.912-8c-11.6,12.433-26.93,10.823-24.878,10.823a45.736,45.736,0,0,0-45.763,45.762V324.5a5.5,5.5,0,1,1-11,0V292.016a56.728,56.728,0,0,1,56.76-56.76,22.927,22.927,0,0,0,22.979-22.92v-1.448A73.672,73.672,0,0,1,115.893,147.2a22.441,22.441,0,0,1-17.238-21.736V96.959c-.3-13.954,1.771-48.9,27.254-73.468C157.376-6.842,207.837-4.915,244.942,12.947a5.512,5.512,0,0,1,1.162,9.159,74.223,74.223,0,0,1,45.42,32.678,6.074,6.074,0,0,1,1.265,4.322,5.562,5.562,0,0,1-1.578,3.489,35.906,35.906,0,0,0-10.393,25.363V125.47a5.5,5.5,0,0,1-11,0V87.958A46.811,46.811,0,0,1,280.5,58.064a63.524,63.524,0,0,0-45.6-26.769l-9.666-1.035a5.5,5.5,0,0,1-1.508-10.553l4.4-1.81c-57.252-19.959-118.476,2.218-118.476,79v28.569a11.354,11.354,0,0,0,6.187,10.061V99.878a38.539,38.539,0,0,1,38.495-38.495h70.116a38.538,38.538,0,0,1,38.495,38.493V144.9c0,47.826-46.736,84.153-94.292,70.152a33.624,33.624,0,0,1-2.878,11.23,41.645,41.645,0,0,0,32.466,6.4,5.5,5.5,0,0,1,6.544,4.2ZM189.393,207.04a62.625,62.625,0,0,0,62.554-62.554V99.876a27.527,27.527,0,0,0-27.5-27.494H154.335a27.528,27.528,0,0,0-27.5,27.5v44.607a62.625,62.625,0,0,0,62.554,62.554Zm55.68,94.777h-16.5a5.5,5.5,0,1,0,0,11h16.5a5.5,5.5,0,1,0,0-11Z"/>
  </g>
</svg>
