<?xml version="1.0"?>
<svg xmlns="http://www.w3.org/2000/svg" xmlns:xlink="http://www.w3.org/1999/xlink" xmlns:svgjs="http://svgjs.com/svgjs" version="1.1" width="512" height="512" x="0" y="0" viewBox="0 0 512 512" style="enable-background:new 0 0 512 512" xml:space="preserve" class=""><g><g xmlns="http://www.w3.org/2000/svg"><path d="m164.401 458.899-53.1 53.101-111.301-111.301 53.101-53.1 81.714 21.715z" fill="#25283a" data-original="#804d67" style="" class=""/><path d="m328.801 340.699h-142.5v30h124.799c4.273-.913 30.024 1.08 52.8-22.2l71.6-70.648c17.701-17.999 47.401-20.4 65.4-2.999l11.1 11.1c-3.363 3.363-102.434 102.118-105.799 105.447-25.501 25.201-59.101 39.3-95.101 39.3h-118.499l-28.2 28.2-111.3-111.3c3.016-2.944 53.951-52.672 50.7-49.499 13.5-11.1 30-17.401 47.401-17.401h177.599z" fill="#25283a" data-original="#ffd5cc" style="" class=""/><g><path d="m435.5 277.852-71.6 70.648c-22.776 23.28-48.527 21.286-52.8 22.2h-57.299v60h57.299c36 0 69.6-14.099 95.101-39.3 3.365-3.329 102.435-102.084 105.799-105.447l-11.1-11.1c-17.999-17.401-47.699-15.001-65.4 2.999z" fill="#25283a" data-original="#ffc0b3" style="" class=""/></g><g><path d="m253.801 280.699h75v60h-75z" fill="#25283a" data-original="#ffc0b3" style="" class=""/></g><g><g id="Volunteering_7_"><g><path d="m316 240.344-113.027-113.042c-29.297-29.236-29.343-76.772 0-106.055 28.301-28.33 77.754-28.33 106.055 0l6.972 6.959 6.973-6.958c28.301-28.33 77.754-28.33 106.055 0 29.297 29.236 29.343 76.772 0 106.055z" fill="#cc2936" data-original="#e64560" style="" class=""/></g></g><path d="m429.027 127.302c29.343-29.282 29.297-76.818 0-106.055-28.301-28.33-77.754-28.33-106.055 0l-6.972 6.959v212.139z" fill="#cc2936" data-original="#cc2936" style="" class=""/></g></g></g></svg>
